<svg width="230" height="31" viewBox="0 0 230 31" fill="none" xmlns="http://www.w3.org/2000/svg">
<path d="M110.114 0.97998H108.353V30.98H110.114V0.97998Z" fill="black"/>
<path d="M5.49384 20.3504H3.99198V11.9549H5.4673C8.24813 11.9549 9.71283 13.4461 9.71283 16.1261C9.71283 19.0556 8.34896 20.3717 5.4673 20.3717L5.49384 20.3504ZM21.6693 11.9549V8.66992H13.3375V14.7888C13.1665 13.1482 12.4134 11.6232 11.2147 10.4902C9.62262 9.0361 7.91379 8.71238 5.47792 8.71238H0.23999V23.6248H5.99799C8.12076 23.6248 9.57485 23.3117 11.2253 21.7674C12.388 20.6642 13.1373 19.1957 13.3481 17.6068V23.5399H21.6799V20.3558H17.0258V17.559H21.0537V14.3749H17.0258V11.9549H21.6693Z" fill="#1D1D1B"/>
<path d="M38.8532 18.275H36.9056L38.8532 14.8786V18.275ZM38.4976 8.66949L33.0156 18.1901C32.6338 18.7616 32.1254 19.2375 31.53 19.5808C30.9345 19.9241 30.2679 20.1256 29.582 20.1696C27.3849 20.2651 25.5116 18.2166 25.5647 16.0196C25.5687 14.9725 25.9836 13.9689 26.72 13.2246C27.4564 12.4802 28.4555 12.0547 29.5024 12.0394C30.728 12.1294 31.8822 12.6502 32.7608 13.5094C33.1325 13.8129 33.4564 14.1707 33.7214 14.5708L35.7168 11.0735C35.4231 10.7538 35.1017 10.4608 34.7563 10.1979C33.3025 8.97627 31.465 8.30553 29.5661 8.30331C28.3416 8.28294 27.1299 8.55494 26.0315 9.09672C24.9332 9.6385 23.9799 10.4344 23.2509 11.4185C22.2008 12.714 21.6376 14.3362 21.6588 16.0036C21.6544 17.9596 22.3704 19.8488 23.6701 21.3106C24.9714 22.7269 26.7388 23.6279 28.6494 23.849C30.56 24.0702 32.4865 23.5968 34.077 22.5152C34.5482 22.1821 34.987 21.8054 35.3878 21.3902H38.8532V23.5395H42.4672V8.6801L38.4976 8.66949Z" fill="#1D1D1B"/>
<path d="M43.1782 12.1882H46.0227V23.6299H49.7641V12.1882H52.6617V8.7334H43.1782V12.1882Z" fill="#1D1D1B"/>
<path d="M60.914 14.3853H57.0612V8.7334H53.3411V23.6299H57.0612V17.9356H60.914V23.6299H64.6872V8.7334H60.914V14.3853Z" fill="#1D1D1B"/>
<path d="M79.2971 20.2282C78.2179 20.199 77.1929 19.7483 76.442 18.9726C75.6911 18.1968 75.2739 17.1578 75.2798 16.0781C75.3079 15.2929 75.5663 14.5332 76.0228 13.8936C76.4794 13.254 77.1139 12.7628 77.8474 12.4811C78.581 12.1994 79.3812 12.1396 80.1485 12.3091C80.9158 12.4787 81.6162 12.8701 82.1628 13.4347C82.7093 13.9993 83.0778 14.7121 83.2223 15.4845C83.3669 16.2569 83.2811 17.0547 82.9757 17.7787C82.6703 18.5027 82.1587 19.1209 81.5047 19.5565C80.8506 19.992 80.0829 20.2256 79.2971 20.2282V20.2282ZM95.791 8.72806V17.0069L90.171 8.72806H86.7746V13.759C86.3813 12.5753 85.6991 11.5083 84.7898 10.6545C83.2957 9.24921 81.3218 8.4668 79.2706 8.4668C77.2195 8.4668 75.2455 9.24921 73.7514 10.6545C73.0136 11.3431 72.4255 12.1762 72.0238 13.102C71.6221 14.0279 71.4153 15.0265 71.4164 16.0357C71.393 17.5626 71.8094 19.064 72.6157 20.3608H69.75V8.72806H66.0352V23.6246H74.1335V22.0697C75.5728 23.2922 77.409 23.9471 79.2971 23.9112C80.3463 23.9171 81.3862 23.7137 82.3558 23.3127C83.3253 22.9118 84.2052 22.3214 84.9437 21.5761C85.7862 20.728 86.414 19.6909 86.7746 18.5512V23.6246H90.5372V15.3193L96.2474 23.6193H99.5324V8.72806H95.791Z" fill="#1D1D1B"/>
<path d="M118.77 15.9292C118.77 11.3812 122.135 8.05908 126.508 8.05908C130.88 8.05908 134.245 11.3812 134.245 15.9292C134.285 17.3412 133.934 18.7368 133.232 19.9624C132.53 21.188 131.503 22.1962 130.265 22.876L132.388 26.3733H128.646L127.139 23.7729C126.929 23.7838 126.718 23.7838 126.508 23.7729C122.135 23.81 118.77 20.472 118.77 15.9292ZM130.923 15.9292C130.923 13.1325 129.044 11.1212 126.508 11.1212C123.971 11.1212 122.092 13.1325 122.092 15.9292C122.092 18.726 123.971 20.7373 126.508 20.7373C129.044 20.7373 130.923 18.7048 130.923 15.9292V15.9292Z" fill="#1D1D1B"/>
<path d="M137.588 17.5215V8.27686H140.826V17.5215C140.826 19.708 141.887 20.7375 143.707 20.7375C145.528 20.7375 146.584 19.708 146.584 17.5215V8.27686H149.816V17.5215C149.816 21.438 147.417 23.7943 143.697 23.7943C139.976 23.7943 137.588 21.438 137.588 17.5215Z" fill="#1D1D1B"/>
<path d="M154.464 8.27686H164.41V11.2487H157.696V14.401H163.619V17.3729H157.696V20.626H164.41V23.5979H154.464V8.27686Z" fill="#1D1D1B"/>
<path d="M175.007 8.05947C176.38 8.02301 177.74 8.3391 178.956 8.97757V12.0397C177.81 11.4361 176.535 11.121 175.241 11.1216C172.64 11.1216 170.629 12.9365 170.629 15.9296C170.629 18.9227 172.662 20.7377 175.437 20.7377C176.689 20.7481 177.928 20.4779 179.062 19.947V23.0091C177.836 23.5822 176.492 23.8568 175.14 23.8104C170.64 23.8104 167.318 20.6263 167.318 15.9456C167.318 11.4028 170.703 8.05947 175.007 8.05947Z" fill="#1D1D1B"/>
<path d="M183.053 8.27686H186.29V14.2578H192.584V8.27686H195.816V23.5767H192.584V17.3251H186.29V23.5767H183.053V8.27686Z" fill="#1D1D1B"/>
<path d="M200.454 17.5215V8.27686H203.686V17.5215C203.686 19.708 204.747 20.7375 206.573 20.7375C208.399 20.7375 209.46 19.708 209.46 17.5215V8.27686H212.692V17.5215C212.692 21.438 210.267 23.8102 206.552 23.8102C202.837 23.8102 200.454 21.438 200.454 17.5215Z" fill="#1D1D1B"/>
<path d="M214.443 23.5767L221.045 8.27686H222.573L229.175 23.5767H225.657L224.76 21.3266H218.726L217.85 23.5767H214.443ZM223.709 18.5723L221.767 13.6528L219.819 18.5723H223.709Z" fill="#1D1D1B"/>
</svg>
